<svg width="536" height="76" viewBox="0 0 536 76" fill="none" xmlns="http://www.w3.org/2000/svg">
<path d="M20.25 13.1875C22 13.7708 22.875 14.3438 22.875 14.9062C22.875 15.8854 22.4271 16.8854 21.5312 17.9062C21.0104 34.3438 18.4479 50.3229 13.8438 65.8438L11.75 67.125C10.375 67.125 9.5 64.9688 9.125 60.6562C7.10417 55.4062 4.19792 41.3125 0.40625 18.375L2.125 16.625C3.83333 16.625 6.3125 29.5729 9.5625 55.4688C11.1042 59.1979 12.1042 61.0625 12.5625 61.0625C16.0208 48.8958 17.75 39.3958 17.75 32.5625V28.7188L18.0625 14.4688L20.25 13.1875ZM34.0312 18.625H34.4688C36.0521 18.625 37.2083 19.9271 37.9375 22.5312C43.3958 26.7812 46.125 34.2604 46.125 44.9688C46.125 55.7812 43.2396 63 37.4688 66.625L33.125 67C28.3958 67 25.2396 62.2604 23.6562 52.7812V47.5938C25.6562 31.4688 27.8125 23.4062 30.125 23.4062C30.125 22.5104 31.4271 20.9167 34.0312 18.625ZM25.8438 48.4375L26.2188 48.875V49.3438L25.8438 50.625C26.6979 59.8333 29.2708 64.4375 33.5625 64.4375C40.1875 64.4375 43.5 57.6771 43.5 44.1562V42.4375C42 30.0208 38.9896 23.8125 34.4688 23.8125C30.6771 23.8125 27.8021 32.0208 25.8438 48.4375ZM68.0312 12.5938C69.7812 13.1979 70.6562 13.7708 70.6562 14.3125V15.2188C70.6562 15.7812 69.3542 16.0625 66.75 16.0625C61.8542 18.625 58.5104 22.8021 56.7188 28.5938C53.4271 35.1354 51.7812 42.4375 51.7812 50.5V50.9375C52.3438 59.5625 54.3542 63.875 57.8125 63.875L59.1562 64.3125H61.7188C63.3646 63.5833 65.2396 60.125 67.3438 53.9375H68.625V54.4062C67.125 63.3229 64.5417 67.7812 60.875 67.7812C56 67.7812 52.0938 64.1667 49.1562 56.9375L48.7812 52.6562C48.7812 40.1979 52.1667 29.1458 58.9375 19.5C62.7083 14.8958 65.7396 12.5938 68.0312 12.5938ZM85 12.5938C86.4583 12.9896 87.1875 13.4375 87.1875 13.9375V15.2188C87.1875 16.1146 83.8542 17.1875 77.1875 18.4375L76.875 33.5312V35.7188C76.875 36.3021 77.2812 36.5938 78.0938 36.5938L86.3438 35.7188L86.7188 36.1562V36.5938C86.7188 37.7396 83.4375 38.8958 76.875 40.0625L75.1562 59.0625V59.9062C75.1562 63.0521 76.3021 64.625 78.5938 64.625L90.1875 59.9062L90.9375 62.5312C91.3333 62.9479 86.7708 64.8021 77.25 68.0938C74.4375 68.0938 72.5833 65.2083 71.6875 59.4375L73.8125 40.875L72.5312 38.7188C73.6771 36.5312 74.25 34.8021 74.25 33.5312L73.8125 22.5938C73.8125 19.7188 73.5104 18.2812 72.9062 18.2812C72.9062 15.9896 76.9375 14.0938 85 12.5938ZM80.9062 0H81.75C82.9375 0 85.5833 4.03125 89.6875 12.0938C87.2083 13.1562 85.7812 12.1771 85.4062 9.15625C83.3438 6.59375 82 5.27083 81.375 5.1875H80.9062C79.1562 6.97917 77.1771 8.875 74.9688 10.875L73.2188 12.0938H72.8438V10C77.1146 3.33333 79.8021 0 80.9062 0ZM140.844 12.5938C142.302 12.9896 143.031 13.4375 143.031 13.9375V15.2188C143.031 16.1146 139.698 17.1875 133.031 18.4375L132.719 33.5312V35.7188C132.719 36.3021 133.125 36.5938 133.938 36.5938L142.188 35.7188L142.562 36.1562V36.5938C142.562 37.7396 139.281 38.8958 132.719 40.0625L131 59.0625V59.9062C131 63.0521 132.146 64.625 134.438 64.625L146.031 59.9062L146.781 62.5312C147.177 62.9479 142.615 64.8021 133.094 68.0938C130.281 68.0938 128.427 65.2083 127.531 59.4375L129.656 40.875L128.375 38.7188C129.521 36.5312 130.094 34.8021 130.094 33.5312L129.656 22.5938C129.656 19.7188 129.354 18.2812 128.75 18.2812C128.75 15.9896 132.781 14.0938 140.844 12.5938ZM167.5 11.9062C168.521 11.9062 170.25 12.9062 172.688 14.9062V16.625H171.844V17.0938C169.531 15.6354 167.656 14.9062 166.219 14.9062H164.031C158.156 18.1979 160.229 32.4896 170.25 57.7812L170.688 59.9062C170.688 65.6562 167.385 70.4271 160.781 74.2188L157.688 75.0625C153.396 73.8333 151.25 71.6562 151.25 68.5312C151.583 67.1354 152 66.4375 152.5 66.4375H153.406C154.344 70.1458 155.344 72 156.406 72C163.031 72 166.792 67.9688 167.688 59.9062V57.7812C155.271 29.2396 154.198 14.0729 164.469 12.2812L167.5 11.9062ZM201.969 16.625L203.25 17.0938V18.375C203.25 19.2083 202.667 19.625 201.5 19.625V20.0938L199.781 19.625C193.26 20.4792 189.802 21.2083 189.406 21.8125L189.875 34.75L190 54.0625L190.375 56.625L190 58.8125V63.5312C190 64.9062 189.271 66.0625 187.812 67C186.479 66.4375 185.771 65.8646 185.688 65.2812V64C186.854 62.4583 187.438 61.1562 187.438 60.0938V58.375L187.812 50.625L187.438 48.4375L187.688 37.8125C187.042 27.1458 186.333 21.8125 185.562 21.8125H183.406L176.469 22.25C175.031 21.875 174.312 21.4271 174.312 20.9062V19.625L175.594 18.375L180.781 19.1875C184.24 18.9375 186.542 18.3646 187.688 17.4688L190.312 18.375L201.969 16.625ZM213.781 13.875C216.885 13.9583 218.5 28.2917 218.625 56.875L219.969 70.7188L217.812 71.0938H216.906L215.625 69.8125V53.8125L215.188 47.3438H214.781C207.885 48.1979 204.115 49.6562 203.469 51.7188C202.365 62.1979 201.531 67.5 200.969 67.625H199.25L197.5 65.9062C198.917 54.9479 201.229 42.8542 204.438 29.625C206.646 18.7083 209.76 13.4583 213.781 13.875ZM204.875 44.3438L207 46C212.75 44.7292 215.625 43.75 215.625 43.0625V35.25L216.062 29.625L215 25.2812C214.188 21.8229 213.333 20.0938 212.438 20.0938C210.604 20.0938 208.083 28.1771 204.875 44.3438ZM206.344 15.9375L204.312 14.0625C210.271 8.89583 213.49 6.20833 213.969 6L215.562 7.59375L206.344 15.9375ZM272.625 11.9062C273.646 11.9062 275.375 12.9062 277.812 14.9062V16.625H276.969V17.0938C274.656 15.6354 272.781 14.9062 271.344 14.9062H269.156C263.281 18.1979 265.354 32.4896 275.375 57.7812L275.812 59.9062C275.812 65.6562 272.51 70.4271 265.906 74.2188L262.812 75.0625C258.521 73.8333 256.375 71.6562 256.375 68.5312C256.708 67.1354 257.125 66.4375 257.625 66.4375H258.531C259.469 70.1458 260.469 72 261.531 72C268.156 72 271.917 67.9688 272.812 59.9062V57.7812C260.396 29.2396 259.323 14.0729 269.594 12.2812L272.625 11.9062ZM294.281 12.5938C295.74 12.9896 296.469 13.4375 296.469 13.9375V15.2188C296.469 16.1146 293.135 17.1875 286.469 18.4375L286.156 33.5312V35.7188C286.156 36.3021 286.562 36.5938 287.375 36.5938L295.625 35.7188L296 36.1562V36.5938C296 37.7396 292.719 38.8958 286.156 40.0625L284.438 59.0625V59.9062C284.438 63.0521 285.583 64.625 287.875 64.625L299.469 59.9062L300.219 62.5312C300.615 62.9479 296.052 64.8021 286.531 68.0938C283.719 68.0938 281.865 65.2083 280.969 59.4375L283.094 40.875L281.812 38.7188C282.958 36.5312 283.531 34.8021 283.531 33.5312L283.094 22.5938C283.094 19.7188 282.792 18.2812 282.188 18.2812C282.188 15.9896 286.219 14.0938 294.281 12.5938ZM355.844 12.5938C357.594 13.1979 358.469 13.7708 358.469 14.3125V15.2188C358.469 15.7812 357.167 16.0625 354.562 16.0625C349.667 18.625 346.323 22.8021 344.531 28.5938C341.24 35.1354 339.594 42.4375 339.594 50.5V50.9375C340.156 59.5625 342.167 63.875 345.625 63.875L346.969 64.3125H349.531C351.177 63.5833 353.052 60.125 355.156 53.9375H356.438V54.4062C354.938 63.3229 352.354 67.7812 348.688 67.7812C343.812 67.7812 339.906 64.1667 336.969 56.9375L336.594 52.6562C336.594 40.1979 339.979 29.1458 346.75 19.5C350.521 14.8958 353.552 12.5938 355.844 12.5938ZM362.844 16.125H364.125L364.969 17.0312V17.4062C363.302 28.6146 362.469 36.1458 362.469 40V42.5625L362.844 43L362.469 43.4375V45.5625C363.406 57.6875 364.688 63.75 366.312 63.75H366.75C370.896 63.75 374.073 55.6771 376.281 39.5312L376.688 34.375L375.344 18.75L376.688 17.0312C378.979 17.0312 380.125 18.75 380.125 22.1875L379.75 33.9062C376.812 56.3854 372.333 67.625 366.312 67.625C362 67.625 359.844 57.3854 359.844 36.9062C360.531 23.0521 361.531 16.125 362.844 16.125ZM389.625 16.5625C391.25 15.625 391.771 17.2708 391.188 21.5C390.625 25.7292 389.75 31.4479 388.562 38.6562C387.396 45.8646 386.812 53.75 386.812 62.3125L387.656 64.9375V65.7812L385.531 67.5C384.302 67.5 383.427 66.4792 382.906 64.4375C383.51 63.75 384.417 55.6771 385.625 40.2188C386.854 24.7604 387.885 17.0312 388.719 17.0312H389.625V16.5625ZM400 11.7188C402.083 14.6146 404.094 16.0625 406.031 16.0625C411.781 19.2083 414.656 23.9583 414.656 30.3125C415.469 39.9583 409.542 51.5312 396.875 65.0312C396.438 67.8854 395.583 69.3125 394.312 69.3125C393.146 69.3125 392.562 68.6042 392.562 67.1875H392.188L394.75 56.375C395.354 47.5417 395.948 36.1042 396.531 22.0625V17.3438C396.531 13.5938 397.688 11.7188 400 11.7188ZM397.375 59.375H397.75C402.75 56.3958 407.104 49.5938 410.812 38.9688L411.719 31.5938V28.9688C410.615 21.8021 407.438 18.2188 402.188 18.2188C400.125 18.2188 399.094 20.2292 399.094 24.25L397.375 59.375ZM431.719 13.875C434.823 13.9583 436.438 28.2917 436.562 56.875L437.906 70.7188L435.75 71.0938H434.844L433.562 69.8125V53.8125L433.125 47.3438H432.719C425.823 48.1979 422.052 49.6562 421.406 51.7188C420.302 62.1979 419.469 67.5 418.906 67.625H417.188L415.438 65.9062C416.854 54.9479 419.167 42.8542 422.375 29.625C424.583 18.7083 427.698 13.4583 431.719 13.875ZM422.812 44.3438L424.938 46C430.688 44.7292 433.562 43.75 433.562 43.0625V35.25L434 29.625L432.938 25.2812C432.125 21.8229 431.271 20.0938 430.375 20.0938C428.542 20.0938 426.021 28.1771 422.812 44.3438ZM462.938 12.0312C464.333 12.0312 465.031 13.4583 465.031 16.3125L464.219 18.9375L464.469 25.9688L466.625 59.25L466.188 60.9688L467.031 66.1562C466.469 67.4896 465.885 68.2188 465.281 68.3438H464C462.938 68.3438 461.219 64.0104 458.844 55.3438C451.802 35.8021 447.615 25.7396 446.281 25.1562C445.51 25.1562 444.938 30.0417 444.562 39.8125L445 45.875L444.562 49.7812L445.469 63.1562L444.188 64.875H443.719C442.177 64.875 441.302 64.4479 441.094 63.5938L442 51.0625L441.562 50.625L442 48.4375V30.3125C442 26.875 442.573 24.2812 443.719 22.5312V21.6875L442 19.5V18.2188C442.562 17.0729 443.417 16.5 444.562 16.5C445.833 16.5 448.281 21.1042 451.906 30.3125C453.656 33.6875 456.26 41.0312 459.719 52.3438L463.188 59.25H463.562V54.5312L461.188 21.9375L461.594 15.9375L461.188 13.75C461.417 12.8958 462 12.3229 462.938 12.0312ZM477.188 11.7188C479.271 14.6146 481.281 16.0625 483.219 16.0625C488.969 19.2083 491.844 23.9583 491.844 30.3125C492.656 39.9583 486.729 51.5312 474.062 65.0312C473.625 67.8854 472.771 69.3125 471.5 69.3125C470.333 69.3125 469.75 68.6042 469.75 67.1875H469.375L471.938 56.375C472.542 47.5417 473.135 36.1042 473.719 22.0625V17.3438C473.719 13.5938 474.875 11.7188 477.188 11.7188ZM474.562 59.375H474.938C479.938 56.3958 484.292 49.5938 488 38.9688L488.906 31.5938V28.9688C487.802 21.8021 484.625 18.2188 479.375 18.2188C477.312 18.2188 476.281 20.2292 476.281 24.25L474.562 59.375ZM503.719 18.625H504.156C505.74 18.625 506.896 19.9271 507.625 22.5312C513.083 26.7812 515.812 34.2604 515.812 44.9688C515.812 55.7812 512.927 63 507.156 66.625L502.812 67C498.083 67 494.927 62.2604 493.344 52.7812V47.5938C495.344 31.4688 497.5 23.4062 499.812 23.4062C499.812 22.5104 501.115 20.9167 503.719 18.625ZM495.531 48.4375L495.906 48.875V49.3438L495.531 50.625C496.385 59.8333 498.958 64.4375 503.25 64.4375C509.875 64.4375 513.188 57.6771 513.188 44.1562V42.4375C511.688 30.0208 508.677 23.8125 504.156 23.8125C500.365 23.8125 497.49 32.0208 495.531 48.4375ZM531.062 11.4375H531.969C534.573 11.4375 535.875 13.6146 535.875 17.9688C535.875 20.2396 533.698 26 529.344 35.25L528.062 40V44.2812C528.229 48.2812 528.656 50.4583 529.344 50.8125C528.969 52 528.26 52.875 527.219 53.4375H526.781C526.177 53.2708 525.604 52.5208 525.062 51.1875L525.5 48.625C525.5 42.9167 524.625 39.0312 522.875 36.9688C522.875 35.8229 524.604 34.1042 528.062 31.8125C530.958 26.3333 532.406 22.7188 532.406 20.9688V17.9688L531.062 16.625C530.25 16.625 529.25 18.9271 528.062 23.5312L526.781 24.4375L525.062 23.1562C527.146 15.3438 529.146 11.4375 531.062 11.4375ZM528.062 60.3438H529.344C530.49 60.9062 531.062 61.7604 531.062 62.9062C531.062 64.0521 530.208 64.625 528.5 64.625V65.0312C527.312 64.6354 526.438 63.9271 525.875 62.9062V62.4688L528.062 60.3438Z" fill="#3F497F"/>
</svg>
