<svg width="654" height="230" viewBox="0 0 654 230" fill="none" xmlns="http://www.w3.org/2000/svg">
<path d="M8.0625 19.7188C10.1458 22.6146 12.1562 24.0625 14.0938 24.0625C19.8438 27.2083 22.7188 31.9583 22.7188 38.3125C23.5312 47.9583 17.6042 59.5312 4.9375 73.0312C4.5 75.8854 3.64583 77.3125 2.375 77.3125C1.20833 77.3125 0.625 76.6042 0.625 75.1875H0.25L2.8125 64.375C3.41667 55.5417 4.01042 44.1042 4.59375 30.0625V25.3438C4.59375 21.5938 5.75 19.7188 8.0625 19.7188ZM5.4375 67.375H5.8125C10.8125 64.3958 15.1667 57.5938 18.875 46.9688L19.7812 39.5938V36.9688C18.6771 29.8021 15.5 26.2188 10.25 26.2188C8.1875 26.2188 7.15625 28.2292 7.15625 32.25L5.4375 67.375ZM37.5312 20.5938C38.9896 20.9896 39.7188 21.4375 39.7188 21.9375V23.2188C39.7188 24.1146 36.3854 25.1875 29.7188 26.4375L29.4062 41.5312V43.7188C29.4062 44.3021 29.8125 44.5938 30.625 44.5938L38.875 43.7188L39.25 44.1562V44.5938C39.25 45.7396 35.9688 46.8958 29.4062 48.0625L27.6875 67.0625V67.9062C27.6875 71.0521 28.8333 72.625 31.125 72.625L42.7188 67.9062L43.4688 70.5312C43.8646 70.9479 39.3021 72.8021 29.7812 76.0938C26.9688 76.0938 25.1146 73.2083 24.2188 67.4375L26.3438 48.875L25.0625 46.7188C26.2083 44.5312 26.7812 42.8021 26.7812 41.5312L26.3438 30.5938C26.3438 27.7188 26.0417 26.2812 25.4375 26.2812C25.4375 23.9896 29.4688 22.0938 37.5312 20.5938ZM64.1875 19.9062C65.2083 19.9062 66.9375 20.9062 69.375 22.9062V24.625H68.5312V25.0938C66.2188 23.6354 64.3438 22.9062 62.9062 22.9062H60.7188C54.8438 26.1979 56.9167 40.4896 66.9375 65.7812L67.375 67.9062C67.375 73.6562 64.0729 78.4271 57.4688 82.2188L54.375 83.0625C50.0833 81.8333 47.9375 79.6562 47.9375 76.5312C48.2708 75.1354 48.6875 74.4375 49.1875 74.4375H50.0938C51.0312 78.1458 52.0312 80 53.0938 80C59.7188 80 63.4792 75.9688 64.375 67.9062V65.7812C51.9583 37.2396 50.8854 22.0729 61.1562 20.2812L64.1875 19.9062ZM88.0938 21.875C91.1979 21.9583 92.8125 36.2917 92.9375 64.875L94.2812 78.7188L92.125 79.0938H91.2188L89.9375 77.8125V61.8125L89.5 55.3438H89.0938C82.1979 56.1979 78.4271 57.6562 77.7812 59.7188C76.6771 70.1979 75.8438 75.5 75.2812 75.625H73.5625L71.8125 73.9062C73.2292 62.9479 75.5417 50.8542 78.75 37.625C80.9583 26.7083 84.0729 21.4583 88.0938 21.875ZM79.1875 52.3438L81.3125 54C87.0625 52.7292 89.9375 51.75 89.9375 51.0625V43.25L90.375 37.625L89.3125 33.2812C88.5 29.8229 87.6458 28.0938 86.75 28.0938C84.9167 28.0938 82.3958 36.1771 79.1875 52.3438ZM116.219 20.5938C117.969 21.1979 118.844 21.7708 118.844 22.3125V23.2188C118.844 23.7812 117.542 24.0625 114.938 24.0625C110.042 26.625 106.698 30.8021 104.906 36.5938C101.615 43.1354 99.9688 50.4375 99.9688 58.5V58.9375C100.531 67.5625 102.542 71.875 106 71.875L107.344 72.3125H109.906C111.552 71.5833 113.427 68.125 115.531 61.9375H116.812V62.4062C115.312 71.3229 112.729 75.7812 109.062 75.7812C104.188 75.7812 100.281 72.1667 97.3438 64.9375L96.9688 60.6562C96.9688 48.1979 100.354 37.1458 107.125 27.5C110.896 22.8958 113.927 20.5938 116.219 20.5938ZM133.344 20.5938C134.802 20.9896 135.531 21.4375 135.531 21.9375V23.2188C135.531 24.1146 132.198 25.1875 125.531 26.4375L125.219 41.5312V43.7188C125.219 44.3021 125.625 44.5938 126.438 44.5938L134.688 43.7188L135.062 44.1562V44.5938C135.062 45.7396 131.781 46.8958 125.219 48.0625L123.5 67.0625V67.9062C123.5 71.0521 124.646 72.625 126.938 72.625L138.531 67.9062L139.281 70.5312C139.677 70.9479 135.115 72.8021 125.594 76.0938C122.781 76.0938 120.927 73.2083 120.031 67.4375L122.156 48.875L120.875 46.7188C122.021 44.5312 122.594 42.8021 122.594 41.5312L122.156 30.5938C122.156 27.7188 121.854 26.2812 121.25 26.2812C121.25 23.9896 125.281 22.0938 133.344 20.5938ZM149.312 20.9062L151.031 22.25L149.688 28.2812L149.938 41.0938V47.5312C149.938 54.3229 149.365 61.9688 148.219 70.4688V70.8438L149.062 71.75H156.844L161.156 70.4688L162.031 71.75C162.031 74.3333 156.677 75.625 145.969 75.625C144.823 75.625 144.25 75.0521 144.25 73.9062H143.875C146.167 67.9271 147.312 59.1354 147.312 47.5312L147.125 22.6562C147.417 21.4896 148.146 20.9062 149.312 20.9062ZM178.594 20.5938C180.052 20.9896 180.781 21.4375 180.781 21.9375V23.2188C180.781 24.1146 177.448 25.1875 170.781 26.4375L170.469 41.5312V43.7188C170.469 44.3021 170.875 44.5938 171.688 44.5938L179.938 43.7188L180.312 44.1562V44.5938C180.312 45.7396 177.031 46.8958 170.469 48.0625L168.75 67.0625V67.9062C168.75 71.0521 169.896 72.625 172.188 72.625L183.781 67.9062L184.531 70.5312C184.927 70.9479 180.365 72.8021 170.844 76.0938C168.031 76.0938 166.177 73.2083 165.281 67.4375L167.406 48.875L166.125 46.7188C167.271 44.5312 167.844 42.8021 167.844 41.5312L167.406 30.5938C167.406 27.7188 167.104 26.2812 166.5 26.2812C166.5 23.9896 170.531 22.0938 178.594 20.5938ZM201.844 26.0312H203.562C206.125 26.0312 207.406 28.0625 207.406 32.125C204.99 40.3958 200.958 46.4271 195.312 50.2188V51.5625C200.604 67.2708 204.51 75.9167 207.031 77.5L208.75 77.875V79.5938L206.594 81.3438C204.802 81.3438 201.917 76.0312 197.938 65.4062L193.219 54.5938H191.875V55.0312L192.375 62.3125C192.375 70.6875 191.625 74.875 190.125 74.875H188.906C188.24 74.875 187.792 74.1458 187.562 72.6875L188.906 68.4062L189.75 37.3125C188.292 37.3125 187.562 36.7292 187.562 35.5625C188.729 33.8125 189.312 32.5208 189.312 31.6875V28.2188L190.656 26.9375H191.031L194.094 27.7812L201.844 26.0312ZM192.75 32.5625L192.375 44.2188V47.2188L193.219 48.125H194.094C200.677 42.3125 203.969 37.125 203.969 32.5625V30.4062L202.219 28.6562H201.844C198.615 28.6562 195.583 29.9583 192.75 32.5625ZM223.219 20.5938C224.677 20.9896 225.406 21.4375 225.406 21.9375V23.2188C225.406 24.1146 222.073 25.1875 215.406 26.4375L215.094 41.5312V43.7188C215.094 44.3021 215.5 44.5938 216.312 44.5938L224.562 43.7188L224.938 44.1562V44.5938C224.938 45.7396 221.656 46.8958 215.094 48.0625L213.375 67.0625V67.9062C213.375 71.0521 214.521 72.625 216.812 72.625L228.406 67.9062L229.156 70.5312C229.552 70.9479 224.99 72.8021 215.469 76.0938C212.656 76.0938 210.802 73.2083 209.906 67.4375L212.031 48.875L210.75 46.7188C211.896 44.5312 212.469 42.8021 212.469 41.5312L212.031 30.5938C212.031 27.7188 211.729 26.2812 211.125 26.2812C211.125 23.9896 215.156 22.0938 223.219 20.5938ZM279.031 20.5938C280.49 20.9896 281.219 21.4375 281.219 21.9375V23.2188C281.219 24.1146 277.885 25.1875 271.219 26.4375L270.906 41.5312V43.7188C270.906 44.3021 271.312 44.5938 272.125 44.5938L280.375 43.7188L280.75 44.1562V44.5938C280.75 45.7396 277.469 46.8958 270.906 48.0625L269.188 67.0625V67.9062C269.188 71.0521 270.333 72.625 272.625 72.625L284.219 67.9062L284.969 70.5312C285.365 70.9479 280.802 72.8021 271.281 76.0938C268.469 76.0938 266.615 73.2083 265.719 67.4375L267.844 48.875L266.562 46.7188C267.708 44.5312 268.281 42.8021 268.281 41.5312L267.844 30.5938C267.844 27.7188 267.542 26.2812 266.938 26.2812C266.938 23.9896 270.969 22.0938 279.031 20.5938ZM54.1855 172.728C54.7402 172.728 55.1668 172.984 55.4655 173.496C55.8068 174.008 55.9775 174.712 55.9775 175.608C55.9775 177.315 55.5722 178.637 54.7615 179.576C52.9268 181.837 50.9428 183.693 48.8095 185.144C46.7188 186.595 44.3295 187.32 41.6415 187.32C39.3802 187.32 37.5455 186.509 36.1375 184.888C33.7055 186.467 31.1668 187.277 28.5215 187.32C27.9668 195.555 26.7082 202.424 24.7455 207.928C22.7828 213.475 19.9028 216.248 16.1055 216.248C13.8015 216.248 12.0948 215.416 10.9855 213.752C9.87617 212.088 9.3215 209.784 9.3215 206.84C9.3215 202.659 10.2815 197.773 12.2015 192.184C14.1215 186.637 17.0868 180.515 21.0975 173.816C21.0975 167.587 21.0548 163.256 20.9695 160.824C20.9268 159.587 21.4175 158.605 22.4415 157.88C23.4655 157.155 24.7455 156.792 26.2815 156.792C27.1775 156.792 27.8175 156.984 28.2015 157.368C28.6282 157.709 28.8628 158.413 28.9055 159.48C28.9055 160.547 28.9268 161.336 28.9695 161.848C30.3348 160.141 31.6788 158.925 33.0015 158.2C34.3242 157.432 35.7322 157.048 37.2255 157.048C39.6148 157.048 41.5562 158.008 43.0495 159.928C44.5855 161.848 45.3535 164.365 45.3535 167.48C45.3535 169.741 44.9908 171.939 44.2655 174.072C43.5402 176.205 42.5375 178.147 41.2575 179.896C42.1535 180.152 42.9002 180.28 43.4975 180.28C44.9055 180.28 46.2495 179.768 47.5295 178.744C48.8095 177.72 50.4522 176.013 52.4575 173.624C52.9695 173.027 53.5455 172.728 54.1855 172.728ZM28.8415 181.176C30.3775 180.835 31.7855 180.003 33.0655 178.68C34.3882 177.315 35.4335 175.651 36.2015 173.688C36.9695 171.683 37.3535 169.592 37.3535 167.416C37.3535 166.136 37.0975 165.176 36.5855 164.536C36.0735 163.853 35.3908 163.512 34.5375 163.512C33.0015 163.512 31.1455 165.133 28.9695 168.376C28.9268 170.253 28.9055 173.005 28.9055 176.632C28.9055 178.595 28.8842 180.109 28.8415 181.176ZM16.6175 209.976C17.7695 209.976 18.7295 207.459 19.4975 202.424C20.2655 197.432 20.7562 191.203 20.9695 183.736C19.1348 188.003 17.6842 192.077 16.6175 195.96C15.5508 199.843 15.0175 203.107 15.0175 205.752C15.0175 207.117 15.1882 208.163 15.5295 208.888C15.8282 209.613 16.1908 209.976 16.6175 209.976ZM55.366 187.32C53.7447 187.32 52.5927 186.467 51.91 184.76C51.27 183.053 50.95 180.323 50.95 176.568C50.95 171.021 51.7393 165.752 53.318 160.76C53.702 159.523 54.3207 158.627 55.174 158.072C56.07 157.475 57.3073 157.176 58.886 157.176C59.7393 157.176 60.3367 157.283 60.678 157.496C61.0193 157.709 61.19 158.115 61.19 158.712C61.19 159.395 60.87 160.931 60.23 163.32C59.8033 165.027 59.462 166.52 59.206 167.8C58.95 169.08 58.7367 170.659 58.566 172.536C59.974 168.867 61.5527 165.88 63.302 163.576C65.0513 161.272 66.758 159.629 68.422 158.648C70.1287 157.667 71.686 157.176 73.094 157.176C75.8673 157.176 77.254 158.563 77.254 161.336C77.254 161.891 77.062 163.235 76.678 165.368C76.3367 167.075 76.166 168.141 76.166 168.568C76.166 170.061 76.6993 170.808 77.766 170.808C78.9607 170.808 80.4967 169.869 82.374 167.992C82.9287 167.437 83.5047 167.16 84.102 167.16C84.6567 167.16 85.0833 167.416 85.382 167.928C85.7233 168.397 85.894 169.037 85.894 169.848C85.894 171.427 85.4673 172.664 84.614 173.56C83.4193 174.797 82.0113 175.864 80.39 176.76C78.8113 177.613 77.126 178.04 75.334 178.04C73.0727 178.04 71.3447 177.464 70.15 176.312C68.998 175.16 68.422 173.603 68.422 171.64C68.422 171 68.486 170.36 68.614 169.72C68.6993 168.867 68.742 168.291 68.742 167.992C68.742 167.309 68.5073 166.968 68.038 166.968C67.398 166.968 66.5447 167.693 65.478 169.144C64.454 170.552 63.43 172.429 62.406 174.776C61.382 177.123 60.55 179.597 59.91 182.2C59.4407 184.205 58.886 185.571 58.246 186.296C57.6487 186.979 56.6887 187.32 55.366 187.32ZM108.491 172.728C109.046 172.728 109.472 172.984 109.771 173.496C110.112 174.008 110.283 174.712 110.283 175.608C110.283 177.315 109.878 178.637 109.067 179.576C107.488 181.496 105.248 183.267 102.347 184.888C99.4883 186.509 96.4163 187.32 93.131 187.32C88.651 187.32 85.1737 186.104 82.699 183.672C80.2243 181.24 78.987 177.912 78.987 173.688C78.987 170.744 79.6057 168.013 80.843 165.496C82.0803 162.936 83.787 160.909 85.963 159.416C88.1817 157.923 90.6777 157.176 93.451 157.176C95.9257 157.176 97.9097 157.923 99.403 159.416C100.896 160.867 101.643 162.851 101.643 165.368C101.643 168.312 100.576 170.851 98.443 172.984C96.3523 175.075 92.7897 176.739 87.755 177.976C88.8217 179.939 90.8483 180.92 93.835 180.92C95.755 180.92 97.931 180.259 100.363 178.936C102.838 177.571 104.971 175.8 106.763 173.624C107.275 173.027 107.851 172.728 108.491 172.728ZM92.363 163.448C90.7843 163.448 89.4403 164.365 88.331 166.2C87.2643 168.035 86.731 170.253 86.731 172.856V172.984C89.2483 172.387 91.2323 171.491 92.683 170.296C94.1337 169.101 94.859 167.715 94.859 166.136C94.859 165.325 94.6243 164.685 94.155 164.216C93.7283 163.704 93.131 163.448 92.363 163.448ZM116.976 188.728C114.757 188.728 113.051 188.216 111.856 187.192C110.704 186.168 110.128 185.016 110.128 183.736C110.128 182.627 110.533 181.667 111.344 180.856C112.155 180.045 113.349 179.64 114.928 179.64C115.483 179.64 116.123 179.704 116.848 179.832C117.616 179.917 118.192 179.981 118.576 180.024C118.533 178.915 118.277 177.869 117.808 176.888C117.381 175.907 116.827 174.968 116.144 174.072C115.461 173.133 114.821 172.323 114.224 171.64C112.901 174.157 111.579 176.248 110.256 177.912C108.976 179.576 107.568 181.155 106.032 182.648C105.264 183.416 104.453 183.8 103.6 183.8C102.917 183.8 102.363 183.565 101.936 183.096C101.509 182.584 101.296 181.965 101.296 181.24C101.296 180.387 101.595 179.597 102.192 178.872L103.024 177.848C105.371 174.947 107.141 172.557 108.336 170.68C109.061 169.443 109.915 167.8 110.896 165.752C111.877 163.661 112.837 161.507 113.776 159.288C114.587 157.411 116.272 156.472 118.832 156.472C120.027 156.472 120.859 156.579 121.328 156.792C121.797 157.005 122.032 157.347 122.032 157.816C122.032 158.072 121.947 158.477 121.776 159.032C121.605 159.587 121.371 160.141 121.072 160.696C120.304 162.232 119.92 163.533 119.92 164.6C119.92 165.24 120.133 165.944 120.56 166.712C121.029 167.48 121.733 168.44 122.672 169.592C124.037 171.384 125.061 172.92 125.744 174.2C126.469 175.437 126.832 176.803 126.832 178.296C126.832 178.723 126.789 179.32 126.704 180.088C128.795 179.277 131.248 177.123 134.064 173.624C134.576 173.027 135.152 172.728 135.792 172.728C136.347 172.728 136.773 172.984 137.072 173.496C137.413 174.008 137.584 174.712 137.584 175.608C137.584 177.229 137.179 178.552 136.368 179.576C134.235 182.221 132.187 184.035 130.224 185.016C128.304 185.955 125.915 186.467 123.056 186.552C121.349 188.003 119.323 188.728 116.976 188.728ZM160.929 172.728C161.483 172.728 161.91 172.984 162.208 173.496C162.55 174.008 162.721 174.712 162.721 175.608C162.721 177.315 162.315 178.637 161.505 179.576C159.67 181.837 157.665 183.693 155.489 185.144C153.313 186.595 150.817 187.32 148.001 187.32C139.297 187.32 134.945 181.197 134.945 168.952C134.945 167.075 135.009 165.176 135.137 163.256H132.641C131.361 163.256 130.486 163.021 130.017 162.552C129.59 162.083 129.377 161.336 129.377 160.312C129.377 157.923 130.337 156.728 132.257 156.728H135.905C136.63 152.035 137.739 147.747 139.233 143.864C140.726 139.981 142.518 136.888 144.609 134.584C146.742 132.28 149.025 131.128 151.457 131.128C153.249 131.128 154.657 131.917 155.681 133.496C156.705 135.075 157.217 137.059 157.217 139.448C157.217 146.061 154.443 151.821 148.897 156.728H156.065C156.747 156.728 157.238 156.877 157.537 157.176C157.835 157.475 157.985 158.029 157.985 158.84C157.985 161.784 155.574 163.256 150.753 163.256H142.945C142.859 165.389 142.817 167.053 142.817 168.248C142.817 172.685 143.329 175.8 144.353 177.592C145.419 179.384 147.083 180.28 149.345 180.28C151.179 180.28 152.801 179.725 154.209 178.616C155.617 177.507 157.281 175.843 159.201 173.624C159.713 173.027 160.289 172.728 160.929 172.728ZM149.729 137.272C149.089 137.272 148.363 138.083 147.553 139.704C146.785 141.283 146.038 143.501 145.312 146.36C144.63 149.176 144.054 152.312 143.585 155.768C146.102 153.592 147.979 151.16 149.217 148.472C150.497 145.741 151.137 143.267 151.137 141.048C151.137 138.531 150.667 137.272 149.729 137.272ZM180.422 174.648C180.976 174.648 181.403 174.904 181.702 175.416C182.043 175.928 182.214 176.632 182.214 177.528C182.214 179.064 181.851 180.387 181.126 181.496C179.931 183.331 178.352 184.76 176.39 185.784C174.47 186.808 172.166 187.32 169.478 187.32C165.382 187.32 162.203 186.104 159.942 183.672C157.68 181.197 156.549 177.869 156.549 173.688C156.549 170.744 157.168 168.013 158.406 165.496C159.643 162.936 161.35 160.909 163.526 159.416C165.744 157.923 168.24 157.176 171.014 157.176C173.488 157.176 175.472 157.923 176.966 159.416C178.459 160.867 179.206 162.851 179.206 165.368C179.206 168.312 178.139 170.851 176.006 172.984C173.915 175.075 170.331 176.739 165.254 177.976C166.278 179.939 168.006 180.92 170.438 180.92C172.187 180.92 173.616 180.515 174.726 179.704C175.878 178.893 177.2 177.528 178.694 175.608C179.206 174.968 179.782 174.648 180.422 174.648ZM169.926 163.448C168.347 163.448 167.003 164.365 165.894 166.2C164.827 168.035 164.294 170.253 164.294 172.856V172.984C166.811 172.387 168.795 171.491 170.246 170.296C171.696 169.101 172.422 167.715 172.422 166.136C172.422 165.325 172.187 164.685 171.718 164.216C171.291 163.704 170.694 163.448 169.926 163.448ZM208.632 187.32C205.986 187.32 203.874 186.36 202.296 184.44C200.717 182.52 199.928 180.003 199.928 176.888C199.928 173.475 200.717 170.253 202.296 167.224C203.874 164.152 205.965 161.699 208.568 159.864C211.213 157.987 214.008 157.048 216.952 157.048C217.89 157.048 218.509 157.24 218.808 157.624C219.149 157.965 219.426 158.605 219.64 159.544C220.536 159.373 221.474 159.288 222.456 159.288C224.546 159.288 225.592 160.035 225.592 161.528C225.592 162.424 225.272 164.557 224.632 167.928C223.65 172.835 223.16 176.248 223.16 178.168C223.16 178.808 223.309 179.32 223.608 179.704C223.949 180.088 224.376 180.28 224.888 180.28C225.698 180.28 226.68 179.768 227.832 178.744C228.984 177.677 230.541 175.971 232.504 173.624C233.016 173.027 233.592 172.728 234.232 172.728C234.786 172.728 235.213 172.984 235.512 173.496C235.853 174.008 236.024 174.712 236.024 175.608C236.024 177.315 235.618 178.637 234.808 179.576C233.058 181.752 231.202 183.587 229.24 185.08C227.277 186.573 225.378 187.32 223.544 187.32C222.136 187.32 220.834 186.851 219.64 185.912C218.488 184.931 217.613 183.608 217.016 181.944C214.797 185.528 212.002 187.32 208.632 187.32ZM210.936 180.856C211.874 180.856 212.77 180.301 213.624 179.192C214.477 178.083 215.096 176.611 215.48 174.776L217.848 163C216.056 163.043 214.392 163.725 212.856 165.048C211.362 166.328 210.168 168.035 209.272 170.168C208.376 172.301 207.928 174.563 207.928 176.952C207.928 178.275 208.184 179.256 208.696 179.896C209.25 180.536 209.997 180.856 210.936 180.856ZM259.366 172.728C259.921 172.728 260.347 172.984 260.646 173.496C260.987 174.008 261.158 174.712 261.158 175.608C261.158 177.315 260.753 178.637 259.942 179.576C258.107 181.837 256.102 183.693 253.926 185.144C251.75 186.595 249.254 187.32 246.438 187.32C237.734 187.32 233.382 181.197 233.382 168.952C233.382 167.075 233.446 165.176 233.574 163.256H231.078C229.798 163.256 228.923 163.021 228.454 162.552C228.027 162.083 227.814 161.336 227.814 160.312C227.814 157.923 228.774 156.728 230.694 156.728H234.342C235.067 152.035 236.177 147.747 237.67 143.864C239.163 139.981 240.955 136.888 243.046 134.584C245.179 132.28 247.462 131.128 249.894 131.128C251.686 131.128 253.094 131.917 254.118 133.496C255.142 135.075 255.654 137.059 255.654 139.448C255.654 146.061 252.881 151.821 247.334 156.728H254.502C255.185 156.728 255.675 156.877 255.974 157.176C256.273 157.475 256.422 158.029 256.422 158.84C256.422 161.784 254.011 163.256 249.19 163.256H241.382C241.297 165.389 241.254 167.053 241.254 168.248C241.254 172.685 241.766 175.8 242.79 177.592C243.857 179.384 245.521 180.28 247.782 180.28C249.617 180.28 251.238 179.725 252.646 178.616C254.054 177.507 255.718 175.843 257.638 173.624C258.15 173.027 258.726 172.728 259.366 172.728ZM248.166 137.272C247.526 137.272 246.801 138.083 245.99 139.704C245.222 141.283 244.475 143.501 243.75 146.36C243.067 149.176 242.491 152.312 242.022 155.768C244.539 153.592 246.417 151.16 247.654 148.472C248.934 145.741 249.574 143.267 249.574 141.048C249.574 138.531 249.105 137.272 248.166 137.272ZM284.491 172.728C285.046 172.728 285.472 172.984 285.771 173.496C286.112 174.008 286.283 174.712 286.283 175.608C286.283 177.315 285.878 178.637 285.067 179.576C283.488 181.496 281.248 183.267 278.347 184.888C275.488 186.509 272.416 187.32 269.131 187.32C264.651 187.32 261.174 186.104 258.699 183.672C256.224 181.24 254.987 177.912 254.987 173.688C254.987 170.744 255.606 168.013 256.843 165.496C258.08 162.936 259.787 160.909 261.963 159.416C264.182 157.923 266.678 157.176 269.451 157.176C271.926 157.176 273.91 157.923 275.403 159.416C276.896 160.867 277.643 162.851 277.643 165.368C277.643 168.312 276.576 170.851 274.443 172.984C272.352 175.075 268.79 176.739 263.755 177.976C264.822 179.939 266.848 180.92 269.835 180.92C271.755 180.92 273.931 180.259 276.363 178.936C278.838 177.571 280.971 175.8 282.763 173.624C283.275 173.027 283.851 172.728 284.491 172.728ZM268.363 163.448C266.784 163.448 265.44 164.365 264.331 166.2C263.264 168.035 262.731 170.253 262.731 172.856V172.984C265.248 172.387 267.232 171.491 268.683 170.296C270.134 169.101 270.859 167.715 270.859 166.136C270.859 165.325 270.624 164.685 270.155 164.216C269.728 163.704 269.131 163.448 268.363 163.448ZM285.616 187.32C283.995 187.32 282.843 186.467 282.16 184.76C281.52 183.053 281.2 180.323 281.2 176.568C281.2 171.021 281.989 165.752 283.568 160.76C283.952 159.523 284.571 158.627 285.424 158.072C286.32 157.475 287.557 157.176 289.136 157.176C289.989 157.176 290.587 157.283 290.928 157.496C291.269 157.709 291.44 158.115 291.44 158.712C291.44 159.395 291.12 160.931 290.48 163.32C290.053 165.027 289.712 166.52 289.456 167.8C289.2 169.08 288.987 170.659 288.816 172.536C290.224 168.867 291.803 165.88 293.552 163.576C295.301 161.272 297.008 159.629 298.672 158.648C300.379 157.667 301.936 157.176 303.344 157.176C306.117 157.176 307.504 158.563 307.504 161.336C307.504 163 307.035 166.008 306.096 170.36C305.285 174.072 304.88 176.525 304.88 177.72C304.88 179.427 305.499 180.28 306.736 180.28C307.589 180.28 308.592 179.768 309.744 178.744C310.939 177.677 312.517 175.971 314.48 173.624C314.992 173.027 315.568 172.728 316.208 172.728C316.763 172.728 317.189 172.984 317.488 173.496C317.829 174.008 318 174.712 318 175.608C318 177.315 317.595 178.637 316.784 179.576C314.949 181.837 312.965 183.693 310.832 185.144C308.741 186.595 306.352 187.32 303.664 187.32C301.488 187.32 299.845 186.701 298.736 185.464C297.627 184.184 297.072 182.349 297.072 179.96C297.072 178.765 297.371 176.632 297.968 173.56C298.523 170.872 298.8 169.016 298.8 167.992C298.8 167.309 298.565 166.968 298.096 166.968C297.541 166.968 296.752 167.693 295.728 169.144C294.747 170.552 293.723 172.429 292.656 174.776C291.632 177.123 290.8 179.597 290.16 182.2C289.691 184.205 289.136 185.571 288.496 186.296C287.899 186.979 286.939 187.32 285.616 187.32ZM339.766 172.728C340.321 172.728 340.747 172.984 341.046 173.496C341.387 174.008 341.558 174.712 341.558 175.608C341.558 177.229 341.153 178.552 340.342 179.576C338.891 181.368 337.206 182.883 335.286 184.12C333.409 185.315 331.446 186.189 329.398 186.744C331.062 188.152 331.894 190.072 331.894 192.504C331.894 194.509 331.403 196.301 330.422 197.88C329.483 199.501 328.097 200.76 326.262 201.656C324.47 202.552 322.358 203 319.926 203C318.305 203 316.982 202.893 315.958 202.68C314.294 202.381 313.462 201.443 313.462 199.864C313.462 197.944 314.315 196.984 316.022 196.984C316.363 196.984 316.641 197.005 316.854 197.048C318.006 197.219 319.137 197.304 320.246 197.304C321.953 197.304 323.275 196.941 324.214 196.216C325.195 195.533 325.686 194.467 325.686 193.016C325.686 191.949 325.217 191.096 324.278 190.456C323.382 189.859 322.145 189.56 320.566 189.56C319.457 189.56 318.603 189.411 318.006 189.112C317.409 188.813 317.11 188.301 317.11 187.576C317.11 187.32 317.131 187.128 317.174 187C317.302 186.36 317.494 185.891 317.75 185.592C315.83 184.568 314.358 183.075 313.334 181.112C312.31 179.149 311.798 176.909 311.798 174.392C311.798 170.936 312.481 167.907 313.846 165.304C315.211 162.701 316.982 160.696 319.158 159.288C321.334 157.88 323.617 157.176 326.006 157.176C328.353 157.176 330.166 157.88 331.446 159.288C332.769 160.653 333.43 162.424 333.43 164.6C333.43 166.392 333.025 167.907 332.214 169.144C331.446 170.381 330.422 171 329.142 171C328.331 171 327.67 170.808 327.158 170.424C326.689 170.04 326.454 169.507 326.454 168.824C326.454 168.525 326.497 168.184 326.582 167.8C326.667 167.416 326.731 167.139 326.774 166.968C326.987 166.328 327.094 165.731 327.094 165.176C327.094 164.621 326.945 164.195 326.646 163.896C326.39 163.597 326.006 163.448 325.494 163.448C324.513 163.448 323.595 163.896 322.742 164.792C321.889 165.645 321.206 166.819 320.694 168.312C320.182 169.805 319.926 171.448 319.926 173.24C319.926 178.189 322.081 180.664 326.39 180.664C328.139 180.664 330.017 180.088 332.022 178.936C334.07 177.741 336.075 175.971 338.038 173.624C338.55 173.027 339.126 172.728 339.766 172.728ZM343.632 187.32C340.986 187.32 338.874 186.36 337.296 184.44C335.717 182.52 334.928 180.003 334.928 176.888C334.928 173.475 335.717 170.253 337.296 167.224C338.874 164.152 340.965 161.699 343.568 159.864C346.213 157.987 349.008 157.048 351.952 157.048C352.89 157.048 353.509 157.24 353.808 157.624C354.149 157.965 354.426 158.605 354.64 159.544C355.536 159.373 356.474 159.288 357.456 159.288C359.546 159.288 360.592 160.035 360.592 161.528C360.592 162.424 360.272 164.557 359.632 167.928C358.65 172.835 358.16 176.248 358.16 178.168C358.16 178.808 358.309 179.32 358.608 179.704C358.949 180.088 359.376 180.28 359.888 180.28C360.698 180.28 361.68 179.768 362.832 178.744C363.984 177.677 365.541 175.971 367.504 173.624C368.016 173.027 368.592 172.728 369.232 172.728C369.786 172.728 370.213 172.984 370.512 173.496C370.853 174.008 371.024 174.712 371.024 175.608C371.024 177.315 370.618 178.637 369.808 179.576C368.058 181.752 366.202 183.587 364.24 185.08C362.277 186.573 360.378 187.32 358.544 187.32C357.136 187.32 355.834 186.851 354.64 185.912C353.488 184.931 352.613 183.608 352.016 181.944C349.797 185.528 347.002 187.32 343.632 187.32ZM345.936 180.856C346.874 180.856 347.77 180.301 348.624 179.192C349.477 178.083 350.096 176.611 350.48 174.776L352.848 163C351.056 163.043 349.392 163.725 347.856 165.048C346.362 166.328 345.168 168.035 344.272 170.168C343.376 172.301 342.928 174.563 342.928 176.952C342.928 178.275 343.184 179.256 343.696 179.896C344.25 180.536 344.997 180.856 345.936 180.856ZM358.928 152.952C358.245 152.952 357.605 152.845 357.008 152.632C356.41 152.376 355.642 151.928 354.704 151.288L347.856 146.552L345.04 150.584C344.357 151.523 343.397 151.992 342.16 151.992C341.392 151.992 340.73 151.779 340.176 151.352C339.664 150.883 339.408 150.264 339.408 149.496C339.408 148.515 340.197 146.872 341.776 144.568C342.757 143.16 343.717 142.136 344.656 141.496C345.594 140.813 346.618 140.472 347.728 140.472C348.453 140.472 349.093 140.579 349.648 140.792C350.245 141.005 351.013 141.453 351.952 142.136L358.8 146.872L361.616 142.84C362.298 141.901 363.258 141.432 364.496 141.432C365.264 141.432 365.904 141.667 366.416 142.136C366.97 142.563 367.248 143.16 367.248 143.928C367.248 144.525 367.034 145.208 366.608 145.976C366.224 146.701 365.648 147.661 364.88 148.856C363.898 150.264 362.938 151.309 362 151.992C361.061 152.632 360.037 152.952 358.928 152.952ZM376.638 187.32C374.121 187.32 371.966 186.701 370.174 185.464C368.425 184.184 367.102 182.52 366.206 180.472C365.31 178.424 364.862 176.227 364.862 173.88C364.862 170.637 365.459 167.757 366.654 165.24C367.891 162.68 369.555 160.696 371.646 159.288C373.737 157.837 376.083 157.112 378.686 157.112C381.203 157.112 383.358 157.752 385.15 159.032C386.942 160.269 388.286 161.912 389.182 163.96C390.078 166.008 390.526 168.205 390.526 170.552C390.526 173.795 389.907 176.696 388.67 179.256C387.433 181.773 385.747 183.757 383.614 185.208C381.523 186.616 379.198 187.32 376.638 187.32ZM377.342 180.408C378.793 180.408 380.009 179.619 380.99 178.04C382.014 176.461 382.526 174.157 382.526 171.128C382.526 168.781 382.099 167.011 381.246 165.816C380.393 164.621 379.369 164.024 378.174 164.024C376.638 164.024 375.358 164.813 374.334 166.392C373.353 167.928 372.862 170.232 372.862 173.304C372.862 175.736 373.289 177.528 374.142 178.68C374.995 179.832 376.062 180.408 377.342 180.408ZM440.304 172.728C440.858 172.728 441.285 172.984 441.583 173.496C441.925 174.008 442.096 174.712 442.096 175.608C442.096 177.315 441.69 178.637 440.88 179.576C439.301 181.496 437.061 183.267 434.16 184.888C431.301 186.509 428.229 187.32 424.944 187.32C420.464 187.32 416.986 186.104 414.512 183.672C412.037 181.24 410.799 177.912 410.799 173.688C410.799 170.744 411.418 168.013 412.656 165.496C413.893 162.936 415.6 160.909 417.776 159.416C419.994 157.923 422.49 157.176 425.264 157.176C427.738 157.176 429.722 157.923 431.216 159.416C432.709 160.867 433.456 162.851 433.456 165.368C433.456 168.312 432.389 170.851 430.256 172.984C428.165 175.075 424.602 176.739 419.568 177.976C420.634 179.939 422.661 180.92 425.648 180.92C427.568 180.92 429.744 180.259 432.176 178.936C434.65 177.571 436.784 175.8 438.576 173.624C439.088 173.027 439.664 172.728 440.304 172.728ZM424.176 163.448C422.597 163.448 421.253 164.365 420.144 166.2C419.077 168.035 418.544 170.253 418.544 172.856V172.984C421.061 172.387 423.045 171.491 424.496 170.296C425.946 169.101 426.672 167.715 426.672 166.136C426.672 165.325 426.437 164.685 425.968 164.216C425.541 163.704 424.944 163.448 424.176 163.448ZM441.429 187.32C439.807 187.32 438.655 186.467 437.973 184.76C437.333 183.053 437.013 180.323 437.013 176.568C437.013 171.021 437.802 165.752 439.381 160.76C439.765 159.523 440.383 158.627 441.237 158.072C442.133 157.475 443.37 157.176 444.949 157.176C445.802 157.176 446.399 157.283 446.741 157.496C447.082 157.709 447.253 158.115 447.253 158.712C447.253 159.395 446.933 160.931 446.293 163.32C445.866 165.027 445.525 166.52 445.269 167.8C445.013 169.037 444.799 170.595 444.629 172.472C445.781 169.144 447.146 166.328 448.725 164.024C450.346 161.72 451.989 160.013 453.653 158.904C455.359 157.752 456.959 157.176 458.453 157.176C459.946 157.176 460.991 157.517 461.589 158.2C462.229 158.883 462.549 159.928 462.549 161.336C462.549 162.701 462.143 165.176 461.333 168.76C460.991 170.296 460.757 171.448 460.629 172.216C462.037 168.632 463.594 165.709 465.301 163.448C467.05 161.187 468.757 159.587 470.421 158.648C472.085 157.667 473.621 157.176 475.029 157.176C476.394 157.176 477.418 157.539 478.101 158.264C478.826 158.947 479.189 159.971 479.189 161.336C479.189 162.445 478.954 164.536 478.485 167.608C478.058 170.211 477.717 172.685 477.461 175.032C477.205 177.336 477.077 179.917 477.077 182.776C477.077 184.397 476.735 185.571 476.053 186.296C475.413 186.979 474.346 187.32 472.853 187.32C471.445 187.32 470.421 186.957 469.781 186.232C469.141 185.507 468.821 184.419 468.821 182.968C468.821 181.261 469.119 178.445 469.717 174.52C470.229 171.107 470.485 168.931 470.485 167.992C470.485 167.309 470.25 166.968 469.781 166.968C469.226 166.968 468.437 167.693 467.413 169.144C466.389 170.552 465.365 172.429 464.341 174.776C463.317 177.123 462.485 179.597 461.845 182.2C461.375 184.248 460.821 185.613 460.181 186.296C459.583 186.979 458.602 187.32 457.237 187.32C455.829 187.32 454.762 186.659 454.037 185.336C453.354 183.971 453.013 182.328 453.013 180.408C453.013 178.787 453.226 176.44 453.653 173.368C453.994 170.637 454.165 168.845 454.165 167.992C454.165 167.309 453.93 166.968 453.461 166.968C452.821 166.968 452.01 167.736 451.029 169.272C450.047 170.808 449.087 172.771 448.149 175.16C447.253 177.549 446.527 179.896 445.973 182.2C445.503 184.205 444.949 185.571 444.309 186.296C443.711 186.979 442.751 187.32 441.429 187.32Z" fill="white"/>
<path d="M532.377 167.544C532.505 167.501 532.718 167.48 533.017 167.48C533.657 167.48 534.148 167.693 534.489 168.12C534.83 168.547 535.001 169.123 535.001 169.848C535.001 171.171 534.745 172.216 534.233 172.984C533.721 173.709 532.953 174.243 531.929 174.584C529.966 175.224 527.876 175.544 525.657 175.544C523.78 175.544 522.009 175.288 520.345 174.776C519.108 176.781 517.742 178.851 516.249 180.984C514.542 183.416 513.07 185.08 511.833 185.976C510.596 186.872 509.188 187.32 507.609 187.32C505.86 187.32 504.473 186.637 503.449 185.272C502.468 183.907 501.849 181.752 501.593 178.808C501.081 172.835 500.825 167.608 500.825 163.128V160.888C500.868 159.48 501.252 158.499 501.977 157.944C502.702 157.389 503.79 157.112 505.241 157.112C506.35 157.112 507.161 157.368 507.673 157.88C508.228 158.349 508.505 159.16 508.505 160.312C508.505 165.219 508.804 171.597 509.401 179.448C511.961 175.651 513.881 172.621 515.161 170.36C514.521 169.123 514.201 167.651 514.201 165.944C514.201 164.493 514.521 163.085 515.161 161.72C515.801 160.355 516.676 159.245 517.785 158.392C518.894 157.539 520.153 157.112 521.561 157.112C522.798 157.112 523.801 157.56 524.569 158.456C525.337 159.309 525.721 160.568 525.721 162.232C525.721 164.152 525.209 166.349 524.185 168.824C525.806 168.739 527.961 168.419 530.649 167.864L532.377 167.544ZM562.087 167.352C562.642 167.352 563.068 167.629 563.367 168.184C563.666 168.739 563.815 169.443 563.815 170.296C563.815 172.344 563.196 173.56 561.959 173.944C559.399 174.84 556.583 175.352 553.511 175.48C552.7 179.064 551.1 181.944 548.711 184.12C546.322 186.253 543.612 187.32 540.583 187.32C538.023 187.32 535.826 186.701 533.991 185.464C532.199 184.227 530.834 182.584 529.895 180.536C528.956 178.488 528.487 176.269 528.487 173.88C528.487 170.637 529.106 167.757 530.343 165.24C531.58 162.68 533.287 160.696 535.463 159.288C537.639 157.837 540.05 157.112 542.695 157.112C545.938 157.112 548.54 158.243 550.503 160.504C552.508 162.723 553.682 165.475 554.023 168.76C556.028 168.632 558.418 168.205 561.191 167.48C561.532 167.395 561.831 167.352 562.087 167.352ZM541.095 180.536C542.46 180.536 543.634 179.981 544.615 178.872C545.639 177.763 546.322 176.163 546.663 174.072C545.34 173.176 544.316 172.003 543.591 170.552C542.908 169.101 542.567 167.565 542.567 165.944C542.567 165.261 542.631 164.579 542.759 163.896H542.439C540.732 163.896 539.303 164.728 538.151 166.392C537.042 168.013 536.487 170.317 536.487 173.304C536.487 175.651 536.935 177.443 537.831 178.68C538.77 179.917 539.858 180.536 541.095 180.536ZM570.546 187.32C566.365 187.32 563.101 186.147 560.754 183.8C558.45 181.411 557.298 178.275 557.298 174.392C557.298 170.936 557.981 167.907 559.346 165.304C560.711 162.701 562.482 160.696 564.658 159.288C566.834 157.88 569.117 157.176 571.506 157.176C573.853 157.176 575.666 157.88 576.946 159.288C578.269 160.653 578.93 162.424 578.93 164.6C578.93 166.392 578.525 167.907 577.714 169.144C576.946 170.381 575.922 171 574.642 171C573.831 171 573.17 170.808 572.658 170.424C572.189 170.04 571.954 169.507 571.954 168.824C571.954 168.525 571.997 168.184 572.082 167.8C572.167 167.416 572.231 167.139 572.274 166.968C572.487 166.328 572.594 165.731 572.594 165.176C572.594 164.621 572.445 164.195 572.146 163.896C571.89 163.597 571.506 163.448 570.994 163.448C570.013 163.448 569.095 163.896 568.242 164.792C567.389 165.645 566.706 166.819 566.194 168.312C565.682 169.805 565.426 171.448 565.426 173.24C565.426 178.189 567.581 180.664 571.89 180.664C573.639 180.664 575.517 180.088 577.522 178.936C579.57 177.741 581.575 175.971 583.538 173.624C584.05 173.027 584.626 172.728 585.266 172.728C585.821 172.728 586.247 172.984 586.546 173.496C586.887 174.008 587.058 174.712 587.058 175.608C587.058 177.229 586.653 178.552 585.842 179.576C583.837 182.051 581.426 183.971 578.61 185.336C575.837 186.659 573.149 187.32 570.546 187.32ZM604.797 174.648C605.351 174.648 605.778 174.904 606.077 175.416C606.418 175.928 606.589 176.632 606.589 177.528C606.589 179.064 606.226 180.387 605.501 181.496C604.306 183.331 602.727 184.76 600.765 185.784C598.845 186.808 596.541 187.32 593.853 187.32C589.757 187.32 586.578 186.104 584.317 183.672C582.055 181.197 580.924 177.869 580.924 173.688C580.924 170.744 581.543 168.013 582.781 165.496C584.018 162.936 585.725 160.909 587.901 159.416C590.119 157.923 592.615 157.176 595.389 157.176C597.863 157.176 599.847 157.923 601.341 159.416C602.834 160.867 603.581 162.851 603.581 165.368C603.581 168.312 602.514 170.851 600.381 172.984C598.29 175.075 594.706 176.739 589.629 177.976C590.653 179.939 592.381 180.92 594.812 180.92C596.562 180.92 597.991 180.515 599.101 179.704C600.253 178.893 601.575 177.528 603.069 175.608C603.581 174.968 604.157 174.648 604.797 174.648ZM594.301 163.448C592.722 163.448 591.378 164.365 590.269 166.2C589.202 168.035 588.669 170.253 588.669 172.856V172.984C591.186 172.387 593.17 171.491 594.621 170.296C596.071 169.101 596.797 167.715 596.797 166.136C596.797 165.325 596.562 164.685 596.093 164.216C595.666 163.704 595.069 163.448 594.301 163.448ZM603.005 153.016C602.023 153.016 601.234 152.781 600.637 152.312C600.039 151.8 599.655 150.883 599.485 149.56L598.013 138.232L592.445 149.56C591.805 150.883 591.122 151.779 590.397 152.248C589.671 152.717 588.861 152.952 587.965 152.952C587.069 152.952 586.343 152.76 585.789 152.376C585.277 151.949 585.021 151.352 585.021 150.584C585.021 149.859 585.255 149.091 585.725 148.28L592.893 135.928C593.661 134.605 594.514 133.624 595.453 132.984C596.434 132.301 597.586 131.96 598.909 131.96C600.189 131.96 601.191 132.344 601.917 133.112C602.642 133.88 603.197 135.096 603.581 136.76L606.397 148.28C606.525 148.792 606.589 149.261 606.589 149.688C606.589 150.755 606.226 151.587 605.501 152.184C604.818 152.739 603.986 153.016 603.005 153.016Z" fill="#EFC11D"/>
</svg>
