<svg width="729" height="367" viewBox="0 0 729 367" fill="none" xmlns="http://www.w3.org/2000/svg">
<path d="M72.819 102.467H89.2634C95.7481 102.467 110.263 102.133 110.263 92.8002C110.263 85.18 110.481 77.5257 110.263 69.9113C110.054 62.5932 108.484 55.0894 109.319 47.578C110.436 37.5212 110.82 26.5524 120.486 20.4669C135.85 10.7933 154.854 6.34133 172.819 3.4669C188.54 0.95149 205.203 -1.37046 221.097 0.966901C233.212 2.74861 246.293 3.17323 258.041 6.91135C266.363 9.55915 275.075 10.7013 283.541 12.9669C289.188 14.4781 294.526 16.9307 300.097 18.5225C311.137 21.6767 322.427 26.0309 332.486 31.6891C351.981 42.6554 370.273 55.0008 381.263 75.4113C392.662 96.5803 399.542 118.312 406.263 141.245C412.188 161.459 432.687 172.62 452.375 176.911C465.232 179.714 478.137 181.243 491.152 182.689C501.902 183.884 512.202 182.467 522.763 182.467C533.184 182.467 544.75 180.946 555.041 178.967C561.852 177.657 569.056 178.457 575.986 177.467C583.547 176.387 591.169 175.467 598.819 175.467H635.375C644.18 175.467 652.35 177.242 661.041 178.245C669.021 179.165 676.011 181.943 683.819 183.467C695.615 185.769 707.919 189.185 715.263 199.467C721.967 208.852 724.522 220.256 726.263 231.578C728.257 244.535 728.263 257.978 728.263 271.078C728.263 278.176 728.582 287.505 726.708 294.467C724.742 301.77 720.174 307.913 716.708 314.578C704.622 337.82 675.458 341.875 651.652 343.411C624.121 345.188 595.624 338.979 568.263 342.689C557.595 344.136 546.771 343.482 536.041 344.689C525.631 345.86 515.261 346.945 504.93 348.689C482.313 352.508 459.111 355.168 436.263 357.245C421.498 358.587 405.059 358.48 390.486 355.689C382.454 354.151 374.303 353.926 366.263 352.689C359.46 351.642 352.795 349.929 345.93 349.022C314.084 344.816 282.609 339.467 250.375 339.467C226.238 339.467 200.295 338.288 176.708 344.578C153.792 350.689 132.701 364.33 108.763 366.411C97.0913 367.426 84.9864 366.416 73.3745 365.522C65.6807 364.931 58.0531 363.243 53.2634 356.689C49.0792 350.963 42.905 346.818 38.819 340.689C34.4615 334.153 29.5883 326.944 24.6523 320.911C17.956 312.727 10.654 302.77 5.48565 293.467C-0.591806 282.527 -1.12551 274.812 1.48565 262.8C3.46636 253.689 7.94774 242.922 13.4856 235.467C16.0527 232.011 19.1563 228.599 21.2634 224.911C26.3213 216.06 32.2634 205.928 32.2634 195.467C32.2634 192.432 33.3404 186.563 31.4856 184.245C30.5185 183.036 28.2634 174.382 28.2634 172.967C28.2634 164.648 21.1223 156.082 19.319 147.967C17.2112 138.482 16.3724 130.804 21.0412 121.467C25.3521 112.845 41.463 106.629 50.319 105.522C57.9538 104.568 65.0599 102.467 72.819 102.467Z" fill="#3F497F"/>
<path d="M90.2634 102.467C84.4486 102.467 78.6338 102.467 72.819 102.467C65.0598 102.467 57.9538 104.568 50.319 105.522C41.463 106.629 25.3521 112.845 21.0412 121.467C16.3724 130.804 17.2112 138.482 19.319 147.967C21.1223 156.082 28.2634 164.648 28.2634 172.967C28.2634 174.382 30.5185 183.036 31.4856 184.245C33.3404 186.563 32.2634 192.432 32.2634 195.467C32.2634 205.928 26.3213 216.06 21.2634 224.911C19.1563 228.599 16.0527 232.011 13.4856 235.467C7.94774 242.922 3.46636 253.689 1.48565 262.8C-1.12551 274.812 -0.591806 282.527 5.48565 293.467C10.654 302.77 17.956 312.727 24.6523 320.911C29.5883 326.944 34.4615 334.153 38.819 340.689C42.905 346.818 49.0792 350.963 53.2634 356.689C58.0531 363.243 65.6807 364.931 73.3745 365.522C84.9864 366.416 97.0913 367.426 108.763 366.411C132.701 364.33 153.792 350.689 176.708 344.578C200.295 338.288 226.238 339.467 250.375 339.467C282.609 339.467 314.084 344.816 345.93 349.022C352.795 349.929 359.46 351.642 366.263 352.689C374.303 353.926 382.454 354.151 390.486 355.689C405.059 358.48 421.498 358.587 436.263 357.245C459.111 355.168 482.313 352.508 504.93 348.689C515.261 346.945 525.631 345.86 536.041 344.689C546.771 343.482 557.595 344.136 568.263 342.689C595.624 338.979 624.121 345.188 651.652 343.411C675.458 341.875 704.622 337.82 716.708 314.578C720.174 307.913 724.742 301.77 726.708 294.467C728.582 287.505 728.263 278.176 728.263 271.078C728.263 257.978 728.257 244.535 726.263 231.578C724.522 220.256 721.967 208.852 715.263 199.467C707.919 189.185 695.615 185.769 683.819 183.467C676.011 181.943 669.021 179.165 661.041 178.245C652.35 177.242 644.18 175.467 635.375 175.467C623.189 175.467 611.004 175.467 598.819 175.467C591.169 175.467 583.547 176.387 575.986 177.467C569.056 178.457 561.852 177.657 555.041 178.967C544.75 180.946 533.184 182.467 522.763 182.467C512.202 182.467 501.902 183.884 491.152 182.689C478.137 181.243 465.232 179.714 452.375 176.911C432.687 172.621 412.188 161.459 406.263 141.245C399.542 118.312 392.662 96.5803 381.263 75.4113C370.273 55.0008 351.981 42.6554 332.486 31.6891C322.427 26.0309 311.136 21.6767 300.097 18.5225C294.526 16.9307 289.188 14.4781 283.541 12.9669C275.075 10.7013 266.363 9.55915 258.041 6.91135C246.293 3.17323 233.212 2.74861 221.097 0.966901C205.203 -1.37046 188.54 0.95149 172.819 3.4669C154.854 6.34133 135.85 10.7933 120.486 20.4669C110.82 26.5524 110.436 37.5212 109.319 47.578C108.484 55.0894 110.054 62.5932 110.263 69.9113C110.481 77.5257 110.263 85.18 110.263 92.8002C110.263 102.133 95.7481 102.467 89.2634 102.467" stroke="#3F497F" stroke-width="3" stroke-linecap="round"/>
</svg>
